name Walk5.mot
datacolumns 19
datarows 12
range 0.63100000 0.64200000
endheader

                time	   L_ground_force_vx	   L_ground_force_vy	   L_ground_force_vz	   L_ground_force_px	   L_ground_force_py	   L_ground_force_pz	   R_ground_force_vx	   R_ground_force_vy	   R_ground_force_vz	   R_ground_force_px	   R_ground_force_py	   R_ground_force_pz	   L_ground_torque_x	   L_ground_torque_y	   L_ground_torque_z	   R_ground_torque_x	   R_ground_torque_y	   R_ground_torque_z	
          0.63100000	          0.00000000	          0.00000000	          0.00000000	          0.00000000	          0.00000000	          0.00000000	          0.00000000	          0.00000000	          0.00000000	          0.00000000	          0.00000000	          0.00000000	          0.00000000	          0.00000000	          0.00000000	          0.00000000	          0.00000000	          0.00000000	
          0.63200000	          0.00000000	          0.00000000	          0.00000000	          0.00000000	          0.00000000	          0.00000000	          0.00000000	          0.00000000	          0.00000000	          0.00000000	          0.00000000	          0.00000000	          0.00000000	          0.00000000	          0.00000000	          0.00000000	          0.00000000	          0.00000000	
          0.63300000	          0.00000000	          0.00000000	          0.00000000	          0.00000000	          0.00000000	          0.00000000	          0.00000000	          0.00000000	          0.00000000	          0.00000000	          0.00000000	          0.00000000	          0.00000000	          0.00000000	          0.00000000	          0.00000000	          0.00000000	          0.00000000	
          0.63400000	          0.00000000	          0.00000000	          0.00000000	          0.00000000	          0.00000000	          0.00000000	          0.00000000	          0.00000000	          0.00000000	          0.00000000	          0.00000000	          0.00000000	          0.00000000	          0.00000000	          0.00000000	          0.00000000	          0.00000000	          0.00000000	
          0.63500000	         -3.09658037	         10.85699053	          0.67011398	         -0.48556612	          0.00000000	         -0.03972641	          0.00000000	          0.00000000	          0.00000000	          0.00000000	          0.00000000	          0.00000000	          0.00000000	          0.00650538	          0.00000000	          0.00000000	          0.00000000	          0.00000000	
          0.63600000	         -5.24254828	         23.40341546	          1.42955225	         -0.49218432	          0.00000000	         -0.03850380	          0.00000000	          0.00000000	          0.00000000	          0.00000000	          0.00000000	          0.00000000	          0.00000000	          0.01959179	          0.00000000	          0.00000000	          0.00000000	          0.00000000	
          0.63700000	         -7.56564223	         40.91607222	          2.50760877	         -0.49583023	          0.00000000	         -0.03812174	          0.00000000	          0.00000000	          0.00000000	          0.00000000	          0.00000000	          0.00000000	          0.00000000	          0.03738786	          0.00000000	          0.00000000	          0.00000000	          0.00000000	
          0.63800000	         -9.68468060	         63.12349136	          3.93612308	         -0.49800585	          0.00000000	         -0.03827340	          0.00000000	          0.00000000	          0.00000000	          0.00000000	          0.00000000	          0.00000000	          0.00000000	          0.05912408	          0.00000000	          0.00000000	          0.00000000	          0.00000000	
          0.63900000	        -11.30127195	         89.35762408	          5.73261130	         -0.49913247	          0.00000000	         -0.03873301	          0.00000000	          0.00000000	          0.00000000	          0.00000000	          0.00000000	          0.00000000	          0.00000000	          0.08176763	          0.00000000	          0.00000000	          0.00000000	          0.00000000	
          0.64000000	        -12.21693521	        118.15243686	          7.82098678	         -0.49950248	          0.00000000	         -0.03927531	          0.00000000	          0.00000000	          0.00000000	          0.00000000	          0.00000000	          0.00000000	          0.00000000	          0.10198596	          0.00000000	          0.00000000	          0.00000000	          0.00000000	
          0.64100000	        -12.35246584	        147.21010502	         10.00848460	         -0.49941980	          0.00000000	         -0.03974516	          0.00000000	          0.00000000	          0.00000000	          0.00000000	          0.00000000	          0.00000000	          0.00000000	          0.11883217	          0.00000000	          0.00000000	          0.00000000	          0.00000000	
          0.64200000	        -11.77794475	        174.00420743	         12.05146647	         -0.49916047	          0.00000000	         -0.04006927	          0.00000000	          0.00000000	          0.00000000	          0.00000000	          0.00000000	          0.00000000	          0.00000000	          0.13369503	          0.00000000	          0.00000000	          0.00000000	          0.00000000	
